<?xml version="1.0" standalone="no"?>
<!DOCTYPE svg PUBLIC "-//W3C//DTD SVG 20010904//EN"
 "http://www.w3.org/TR/2001/REC-SVG-20010904/DTD/svg10.dtd">
<svg version="1.0" xmlns="http://www.w3.org/2000/svg"
 width="300.000000pt" height="300.000000pt" viewBox="0 0 300.000000 300.000000"
 preserveAspectRatio="xMidYMid meet">
<metadata>
Created by potrace 1.14, written by Peter Selinger 2001-2017
</metadata>
<g transform="translate(0.000000,300.000000) scale(0.100000,-0.100000)"
fill="#000000" stroke="none">
<path d="M2004 2776 c-141 -45 -146 -50 -581 -481 l-282 -281 433 -437 c238
-240 435 -437 439 -437 7 0 396 389 583 582 95 98 164 202 181 273 1 6 7 30
13 55 11 43 9 174 -4 233 -17 75 -98 215 -174 299 -42 47 -163 137 -217 162
-129 59 -269 71 -391 32z"/>
<path d="M788 1686 c-491 -495 -515 -522 -558 -651 -40 -120 -32 -279 20 -399
44 -103 164 -246 263 -315 50 -34 160 -91 185 -96 9 -2 17 -4 17 -5 0 -6 54
-13 137 -17 81 -4 109 -2 170 17 94 28 174 77 248 151 33 32 61 59 64 59 10 0
556 553 561 569 4 13 -55 78 -241 262 -277 275 -371 369 -517 517 -56 57 -110
108 -119 113 -15 8 -54 -27 -230 -205z"/>
</g>
</svg>
